<?xml version="1.0" standalone="no"?>
<!DOCTYPE svg PUBLIC "-//W3C//DTD SVG 1.1//EN" "http://www.w3.org/Graphics/SVG/1.1/DTD/svg11.dtd">
<svg xmlns="http://www.w3.org/2000/svg" version="1.1" width="595px" height="1500px" xmlns:xlink="http://www.w3.org/1999/xlink">
<defs><style type="text/css"><![CDATA[text {font-family:Helvetica,Arial,Verdana,sans-serif;font-size:9px;}]]></style></defs>
<g id="headline">
<text x="28" y="40" style="font-size:40px; font-weight:bold;">sh.ease</text>
<text x="182" y="40" style="font-size:12px; font-weight:bold;">CHEAT SHEET</text>
<text x="30" y="52" style="font-size:11px;"> Robert Penner's handy easing equations for bash</text>
</g>
<g id="footer" transform="translate(297, 750) scale( .9 ) translate(-297, -750) translate(0, 1500)">
<rect x="0" y="0" width="595" height="60" fill="#ccc" opacity=".7" stroke="none" />
<text x="30" y="22" style="font-size:11px;">Download, usage and examples on <tspan style="font-weight:bold;">http://github.com/b3nson/sh.ease</tspan></text>
<text x="30" y="34" style="font-size:11px;">This sheet was generated by the shellscript "svg.sh", which can be found in the examples-directory</text>
</g>
<g id="graphs" transform="translate(297, 750) scale( .9 ) translate(-297, -750)">
<g id="linear_easeIn" transform="translate( 0, 0 )">
<text x="0" y="-3" style="font-style:italic;">linear_easeIn</text>
<rect x="0" y="0" width="197" height="120" fill="#eee" opacity=".7" stroke="none" />
<path style="fill:none;stroke:#0088ff;stroke-width:1px; 	 stroke-linecap:butt;stroke-linejoin:miter;stroke-opacity:1" d="M 
0 120.00 4 117.56 8 115.13 12 112.69 16 110.25 20 107.82 24 105.38 28 102.94 32 100.51 36 98.07 40 95.63 44 93.20 48 90.76 52 88.32 56 85.89 60 83.45 64 81.02 68 78.58 72 76.14 76 73.71 80 71.27 84 
68.83 88 66.40 92 63.96 96 61.52 100 59.09 104 56.65 108 54.21 112 51.78 116 49.34 120 46.90 124 44.47 128 42.03 132 39.59 136 37.16 140 34.72 144 32.28 148 29.85 152 27.41 156 24.97 160 22.54 164 
20.10 168 17.66 172 15.23 176 12.79 180 10.36 184 7.92 188 5.48 192 3.05 196 0.61
"/>
</g>
<g id="linear_easeOut" transform="translate( 198, 0 )">
<text x="0" y="-3" style="font-style:italic;">linear_easeOut</text>
<rect x="0" y="0" width="197" height="120" fill="#eee" opacity=".7" stroke="none" />
<path style="fill:none;stroke:#0088ff;stroke-width:1px; 	 stroke-linecap:butt;stroke-linejoin:miter;stroke-opacity:1" d="M 
0 120.00 4 117.56 8 115.13 12 112.69 16 110.25 20 107.82 24 105.38 28 102.94 32 100.51 36 98.07 40 95.63 44 93.20 48 90.76 52 88.32 56 85.89 60 83.45 64 81.02 68 78.58 72 76.14 76 73.71 80 71.27 84 
68.83 88 66.40 92 63.96 96 61.52 100 59.09 104 56.65 108 54.21 112 51.78 116 49.34 120 46.90 124 44.47 128 42.03 132 39.59 136 37.16 140 34.72 144 32.28 148 29.85 152 27.41 156 24.97 160 22.54 164 
20.10 168 17.66 172 15.23 176 12.79 180 10.36 184 7.92 188 5.48 192 3.05 196 0.61
"/>
</g>
<g id="linear_easeInOut" transform="translate( 396, 0 )">
<text x="0" y="-3" style="font-style:italic;">linear_easeInOut</text>
<rect x="0" y="0" width="197" height="120" fill="#eee" opacity=".7" stroke="none" />
<path style="fill:none;stroke:#0088ff;stroke-width:1px; 	 stroke-linecap:butt;stroke-linejoin:miter;stroke-opacity:1" d="M 
0 120.00 4 117.56 8 115.13 12 112.69 16 110.25 20 107.82 24 105.38 28 102.94 32 100.51 36 98.07 40 95.63 44 93.20 48 90.76 52 88.32 56 85.89 60 83.45 64 81.02 68 78.58 72 76.14 76 73.71 80 71.27 84 
68.83 88 66.40 92 63.96 96 61.52 100 59.09 104 56.65 108 54.21 112 51.78 116 49.34 120 46.90 124 44.47 128 42.03 132 39.59 136 37.16 140 34.72 144 32.28 148 29.85 152 27.41 156 24.97 160 22.54 164 
20.10 168 17.66 172 15.23 176 12.79 180 10.36 184 7.92 188 5.48 192 3.05 196 0.61
"/>
</g>
<g id="sine_easeIn" transform="translate( 0, 136 )">
<text x="0" y="-3" style="font-style:italic;">sine_easeIn</text>
<rect x="0" y="0" width="197" height="120" fill="#eee" opacity=".7" stroke="none" />
<path style="fill:none;stroke:#0088ff;stroke-width:1px; 	 stroke-linecap:butt;stroke-linejoin:miter;stroke-opacity:1" d="M 
0 120.00 4 119.94 8 119.76 12 119.45 16 119.02 20 118.48 24 117.81 28 117.02 32 116.11 36 115.09 40 113.95 44 112.69 48 111.32 52 109.83 56 108.23 60 106.53 64 104.71 68 102.79 72 100.76 76 98.63 80 
96.40 84 94.07 88 91.65 92 89.13 96 86.53 100 83.83 104 81.05 108 78.19 112 75.25 116 72.23 120 69.13 124 65.97 128 62.74 132 59.45 136 56.09 140 52.68 144 49.22 148 45.70 152 42.14 156 38.53 160 
34.89 164 31.21 168 27.50 172 23.76 176 20.00 180 16.22 184 12.42 188 8.60 192 4.78 196 0.96
"/>
</g>
<g id="sine_easeOut" transform="translate( 198, 136 )">
<text x="0" y="-3" style="font-style:italic;">sine_easeOut</text>
<rect x="0" y="0" width="197" height="120" fill="#eee" opacity=".7" stroke="none" />
<path style="fill:none;stroke:#0088ff;stroke-width:1px; 	 stroke-linecap:butt;stroke-linejoin:miter;stroke-opacity:1" d="M 
0 120.00 4 116.17 8 112.35 12 108.54 16 104.73 20 100.94 24 97.18 28 93.43 32 89.71 36 86.03 40 82.37 44 78.76 48 75.19 52 71.66 56 68.18 60 64.76 64 61.39 68 58.08 72 54.83 76 51.65 80 48.54 84 
45.50 88 42.54 92 39.66 96 36.86 100 34.14 104 31.51 108 28.97 112 26.52 116 24.17 120 21.92 124 19.76 128 17.71 132 15.76 136 13.92 140 12.18 144 10.56 148 9.04 152 7.64 156 6.36 160 5.18 164 4.13 
168 3.19 172 2.38 176 1.68 180 1.10 184 0.64 188 0.31 192 0.10 196 0.00
"/>
</g>
<g id="sine_easeInOut" transform="translate( 396, 136 )">
<text x="0" y="-3" style="font-style:italic;">sine_easeInOut</text>
<rect x="0" y="0" width="197" height="120" fill="#eee" opacity=".7" stroke="none" />
<path style="fill:none;stroke:#0088ff;stroke-width:1px; 	 stroke-linecap:butt;stroke-linejoin:miter;stroke-opacity:1" d="M 
0 120.00 4 119.88 8 119.51 12 118.90 16 118.06 20 116.97 24 115.66 28 114.12 32 112.36 36 110.38 40 108.20 44 105.83 48 103.26 52 100.53 56 97.62 60 94.57 64 91.37 68 88.05 72 84.61 76 81.07 80 77.45 
84 73.75 88 70.00 92 66.21 96 62.39 100 58.56 104 54.74 108 50.94 112 47.18 116 43.47 120 39.83 124 36.27 128 32.80 132 29.45 136 26.22 140 23.13 144 20.19 148 17.40 152 14.80 156 12.37 160 10.15 164 
8.12 168 6.30 172 4.71 176 3.33 180 2.19 184 1.28 188 0.62 192 0.19 196 0.01
"/>
</g>
<g id="quad_easeIn" transform="translate( 0, 272 )">
<text x="0" y="-3" style="font-style:italic;">quad_easeIn</text>
<rect x="0" y="0" width="197" height="120" fill="#eee" opacity=".7" stroke="none" />
<path style="fill:none;stroke:#0088ff;stroke-width:1px; 	 stroke-linecap:butt;stroke-linejoin:miter;stroke-opacity:1" d="M 
0 120.00 4 119.95 8 119.80 12 119.55 16 119.21 20 118.76 24 118.22 28 117.58 32 116.83 36 115.99 40 115.05 44 114.01 48 112.88 52 111.64 56 110.30 60 108.87 64 107.33 68 105.70 72 103.97 76 102.14 80 
100.21 84 98.18 88 96.06 92 93.83 96 91.50 100 89.08 104 86.56 108 83.93 112 81.21 116 78.39 120 75.47 124 72.46 128 69.34 132 66.12 136 62.81 140 59.40 144 55.88 148 52.27 152 48.56 156 44.75 160 
40.84 164 36.84 168 32.73 172 28.52 176 24.22 180 19.82 184 15.32 188 10.71 192 6.01 196 1.22
"/>
</g>
<g id="quad_easeOut" transform="translate( 198, 272 )">
<text x="0" y="-3" style="font-style:italic;">quad_easeOut</text>
<rect x="0" y="0" width="197" height="120" fill="#eee" opacity=".7" stroke="none" />
<path style="fill:none;stroke:#0088ff;stroke-width:1px; 	 stroke-linecap:butt;stroke-linejoin:miter;stroke-opacity:1" d="M 
0 120.00 4 115.18 8 110.45 12 105.83 16 101.30 20 96.87 24 92.54 28 88.31 32 84.18 36 80.15 40 76.22 44 72.38 48 68.65 52 65.01 56 61.47 60 58.03 64 54.70 68 51.46 72 48.31 76 45.27 80 42.33 84 39.48 
88 36.74 92 34.09 96 31.54 100 29.09 104 26.74 108 24.49 112 22.34 116 20.29 120 18.33 124 16.48 128 14.72 132 13.06 136 11.51 140 10.05 144 8.69 148 7.42 152 6.26 156 5.20 160 4.23 164 3.37 168 2.60 
172 1.93 176 1.36 180 0.89 184 0.52 188 0.25 192 0.08 196 0.00
"/>
</g>
<g id="quad_easeInOut" transform="translate( 396, 272 )">
<text x="0" y="-3" style="font-style:italic;">quad_easeInOut</text>
<rect x="0" y="0" width="197" height="120" fill="#eee" opacity=".7" stroke="none" />
<path style="fill:none;stroke:#0088ff;stroke-width:1px; 	 stroke-linecap:butt;stroke-linejoin:miter;stroke-opacity:1" d="M 
0 120.00 4 119.90 8 119.60 12 119.11 16 118.42 20 117.53 24 116.44 28 115.15 32 113.67 36 111.99 40 110.11 44 108.03 48 105.75 52 103.28 56 100.61 60 97.74 64 94.67 68 91.40 72 87.94 76 84.28 80 
80.42 84 76.36 88 72.11 92 67.66 96 63.01 100 58.19 104 53.49 108 48.98 112 44.68 116 40.57 120 36.67 124 32.96 128 29.44 132 26.13 136 23.01 140 20.09 144 17.37 148 14.85 152 12.52 156 10.40 160 
8.47 164 6.73 168 5.20 172 3.87 176 2.73 180 1.79 184 1.05 188 0.50 192 0.15 196 0.01
"/>
</g>
<g id="cubic_easeIn" transform="translate( 0, 408 )">
<text x="0" y="-3" style="font-style:italic;">cubic_easeIn</text>
<rect x="0" y="0" width="197" height="120" fill="#eee" opacity=".7" stroke="none" />
<path style="fill:none;stroke:#0088ff;stroke-width:1px; 	 stroke-linecap:butt;stroke-linejoin:miter;stroke-opacity:1" d="M 
0 120.00 4 120.00 8 119.99 12 119.97 16 119.94 20 119.87 24 119.78 28 119.66 32 119.49 36 119.27 40 119.00 44 118.66 48 118.26 52 117.79 56 117.24 60 116.61 64 115.89 68 115.06 72 114.14 76 113.11 80 
111.96 84 110.70 88 109.30 92 107.78 96 106.11 100 104.30 104 102.34 108 100.23 112 97.95 116 95.50 120 92.88 124 90.07 128 87.08 132 83.90 136 80.52 140 76.93 144 73.13 148 69.12 152 64.88 156 60.41 
160 55.71 164 50.77 168 45.58 172 40.13 176 34.43 180 28.46 184 22.22 188 15.71 192 8.91 196 1.82
"/>
</g>
<g id="cubic_easeOut" transform="translate( 198, 408 )">
<text x="0" y="-3" style="font-style:italic;">cubic_easeOut</text>
<rect x="0" y="0" width="197" height="120" fill="#eee" opacity=".7" stroke="none" />
<path style="fill:none;stroke:#0088ff;stroke-width:1px; 	 stroke-linecap:butt;stroke-linejoin:miter;stroke-opacity:1" d="M 
0 120.00 4 112.84 8 105.97 12 99.38 16 93.07 20 87.04 24 81.27 28 75.76 32 70.51 36 65.50 40 60.74 44 56.22 48 51.92 52 47.85 56 44.00 60 40.36 64 36.93 68 33.69 72 30.66 76 27.81 80 25.14 84 22.65 
88 20.33 92 18.17 96 16.17 100 14.33 104 12.63 108 11.07 112 9.64 116 8.34 120 7.17 124 6.11 128 5.16 132 4.31 136 3.56 140 2.91 144 2.34 148 1.85 152 1.43 156 1.08 160 0.80 164 0.56 168 0.38 172 
0.25 176 0.15 180 0.08 184 0.03 188 0.01 192 0.00 196 0.00
"/>
</g>
<g id="cubic_easeInOut" transform="translate( 396, 408 )">
<text x="0" y="-3" style="font-style:italic;">cubic_easeInOut</text>
<rect x="0" y="0" width="197" height="120" fill="#eee" opacity=".7" stroke="none" />
<path style="fill:none;stroke:#0088ff;stroke-width:1px; 	 stroke-linecap:butt;stroke-linejoin:miter;stroke-opacity:1" d="M 
0 120.00 4 120.00 8 119.97 12 119.89 16 119.74 20 119.50 24 119.13 28 118.62 32 117.94 36 117.07 40 115.98 44 114.65 48 113.06 52 111.17 56 108.97 60 106.44 64 103.54 68 100.26 72 96.57 76 92.44 80 
87.86 84 82.79 88 77.22 92 71.11 96 64.45 100 57.30 104 50.50 108 44.26 112 38.56 116 33.37 120 28.66 124 24.42 128 20.62 132 17.24 136 14.25 140 11.63 144 9.35 148 7.39 152 5.72 156 4.33 160 3.18 
164 2.26 168 1.53 172 0.98 176 0.58 180 0.31 184 0.14 188 0.05 192 0.01 196 0.00
"/>
</g>
<g id="quart_easeIn" transform="translate( 0, 544 )">
<text x="0" y="-3" style="font-style:italic;">quart_easeIn</text>
<rect x="0" y="0" width="197" height="120" fill="#eee" opacity=".7" stroke="none" />
<path style="fill:none;stroke:#0088ff;stroke-width:1px; 	 stroke-linecap:butt;stroke-linejoin:miter;stroke-opacity:1" d="M 
0 120.00 4 120.00 8 120.00 12 120.00 16 119.99 20 119.99 24 119.97 28 119.95 32 119.92 36 119.87 40 119.80 44 119.70 48 119.58 52 119.42 56 119.22 60 118.97 64 118.66 68 118.30 72 117.86 76 117.34 80 
116.74 84 116.03 88 115.22 92 114.29 96 113.23 100 112.03 104 110.68 108 109.16 112 107.46 116 105.57 120 103.48 124 101.16 128 98.61 132 95.81 136 92.74 140 89.39 144 85.74 148 81.77 152 77.47 156 
72.81 160 67.78 164 62.36 168 56.53 172 50.27 176 43.55 180 36.36 184 28.68 188 20.47 192 11.73 196 2.42
"/>
</g>
<g id="quart_easeOut" transform="translate( 198, 544 )">
<text x="0" y="-3" style="font-style:italic;">quart_easeOut</text>
<rect x="0" y="0" width="197" height="120" fill="#eee" opacity=".7" stroke="none" />
<path style="fill:none;stroke:#0088ff;stroke-width:1px; 	 stroke-linecap:butt;stroke-linejoin:miter;stroke-opacity:1" d="M 
0 120.00 4 110.55 8 101.66 12 93.33 16 85.51 20 78.20 24 71.37 28 64.99 32 59.05 36 53.53 40 48.41 44 43.66 48 39.27 52 35.22 56 31.49 60 28.07 64 24.93 68 22.06 72 19.45 76 17.08 80 14.93 84 12.99 
88 11.25 92 9.68 96 8.29 100 7.05 104 5.96 108 5.00 112 4.16 116 3.43 120 2.80 124 2.26 128 1.81 132 1.42 136 1.10 140 0.84 144 0.63 148 0.46 152 0.33 156 0.23 160 0.15 164 0.09 168 0.06 172 0.03 176 
0.02 180 0.01 184 0.00 188 0.00 192 0.00 196 0.00
"/>
</g>
<g id="quart_easeInOut" transform="translate( 396, 544 )">
<text x="0" y="-3" style="font-style:italic;">quart_easeInOut</text>
<rect x="0" y="0" width="197" height="120" fill="#eee" opacity=".7" stroke="none" />
<path style="fill:none;stroke:#0088ff;stroke-width:1px; 	 stroke-linecap:butt;stroke-linejoin:miter;stroke-opacity:1" d="M 
0 120.00 4 120.00 8 120.00 12 119.99 16 119.96 20 119.90 24 119.79 28 119.61 32 119.33 36 118.93 40 118.37 44 117.61 48 116.62 52 115.34 56 113.73 60 111.74 64 109.31 68 106.37 72 102.87 76 98.74 80 
93.89 84 88.27 88 81.78 92 74.34 96 65.86 100 56.43 104 47.68 108 39.99 112 33.27 116 27.44 120 22.41 124 18.10 128 14.45 132 11.38 136 8.83 140 6.73 144 5.03 148 3.67 152 2.61 156 1.80 160 1.19 164 
0.76 168 0.45 172 0.25 176 0.12 180 0.05 184 0.02 188 0.00 192 0.00 196 0.00
"/>
</g>
<g id="quint_easeIn" transform="translate( 0, 680 )">
<text x="0" y="-3" style="font-style:italic;">quint_easeIn</text>
<rect x="0" y="0" width="197" height="120" fill="#eee" opacity=".7" stroke="none" />
<path style="fill:none;stroke:#0088ff;stroke-width:1px; 	 stroke-linecap:butt;stroke-linejoin:miter;stroke-opacity:1" d="M 
0 120.00 4 120.00 8 120.00 12 120.00 16 120.00 20 120.00 24 120.00 28 119.99 32 119.99 36 119.98 40 119.96 44 119.93 48 119.90 52 119.85 56 119.78 60 119.69 64 119.57 68 119.41 72 119.22 76 118.97 80 
118.67 84 118.31 88 117.87 92 117.33 96 116.70 100 115.96 104 115.08 108 114.06 112 112.87 116 111.51 120 109.94 124 108.14 128 106.10 132 103.79 136 101.18 140 98.25 144 94.96 148 91.28 152 87.19 
156 82.63 160 77.59 164 72.02 168 65.88 172 59.12 176 51.70 180 43.58 184 34.70 188 25.02 192 14.47 196 3.01
"/>
</g>
<g id="quint_easeOut" transform="translate( 198, 680 )">
<text x="0" y="-3" style="font-style:italic;">quint_easeOut</text>
<rect x="0" y="0" width="197" height="120" fill="#eee" opacity=".7" stroke="none" />
<path style="fill:none;stroke:#0088ff;stroke-width:1px; 	 stroke-linecap:butt;stroke-linejoin:miter;stroke-opacity:1" d="M 
0 120.00 4 108.30 8 97.53 12 87.64 16 78.57 20 70.26 24 62.67 28 55.75 32 49.46 36 43.75 40 38.58 44 33.91 48 29.70 52 25.92 56 22.54 60 19.52 64 16.83 68 14.45 72 12.34 76 10.49 80 8.87 84 7.45 88 
6.22 92 5.16 96 4.25 100 3.47 104 2.81 108 2.26 112 1.79 116 1.41 120 1.09 124 0.84 128 0.63 132 0.47 136 0.34 140 0.24 144 0.17 148 0.11 152 0.07 156 0.05 160 0.03 164 0.02 168 0.01 172 0.00 176 
0.00 180 0.00 184 0.00 188 0.00 192 0.00 196 0.00
"/>
</g>
<g id="quint_easeInOut" transform="translate( 396, 680 )">
<text x="0" y="-3" style="font-style:italic;">quint_easeInOut</text>
<rect x="0" y="0" width="197" height="120" fill="#eee" opacity=".7" stroke="none" />
<path style="fill:none;stroke:#0088ff;stroke-width:1px; 	 stroke-linecap:butt;stroke-linejoin:miter;stroke-opacity:1" d="M 
0 120.00 4 120.00 8 120.00 12 119.99 16 119.96 20 119.90 24 119.79 28 119.61 32 119.33 36 118.93 40 118.37 44 117.61 48 116.62 52 115.34 56 113.73 60 111.74 64 109.31 68 106.37 72 102.87 76 98.74 80 
93.89 84 88.27 88 81.78 92 74.34 96 65.86 100 56.43 104 47.68 108 39.99 112 33.27 116 27.44 120 22.41 124 18.10 128 14.45 132 11.38 136 8.83 140 6.73 144 5.03 148 3.67 152 2.61 156 1.80 160 1.19 164 
0.76 168 0.45 172 0.25 176 0.12 180 0.05 184 0.02 188 0.00 192 0.00 196 0.00
"/>
</g>
<g id="expo_easeIn" transform="translate( 0, 816 )">
<text x="0" y="-3" style="font-style:italic;">expo_easeIn</text>
<rect x="0" y="0" width="197" height="120" fill="#eee" opacity=".7" stroke="none" />
<path style="fill:none;stroke:#0088ff;stroke-width:1px; 	 stroke-linecap:butt;stroke-linejoin:miter;stroke-opacity:1" d="M 
0 120.12 4 119.87 8 119.84 12 119.82 16 119.79 20 119.76 24 119.73 28 119.69 32 119.64 36 119.58 40 119.52 44 119.45 48 119.37 52 119.27 56 119.16 60 119.03 64 118.89 68 118.72 72 118.52 76 118.30 80 
118.04 84 117.75 88 117.41 92 117.02 96 116.57 100 116.05 104 115.45 108 114.76 112 113.97 116 113.06 120 112.01 124 110.80 128 109.41 132 107.81 136 105.97 140 103.85 144 101.41 148 98.60 152 95.37 
156 91.64 160 87.36 164 82.42 168 76.74 172 70.21 176 62.68 180 54.02 184 44.05 188 32.57 192 19.36 196 4.15
"/>
</g>
<g id="expo_easeOut" transform="translate( 198, 816 )">
<text x="0" y="-3" style="font-style:italic;">expo_easeOut</text>
<rect x="0" y="0" width="197" height="120" fill="#eee" opacity=".7" stroke="none" />
<path style="fill:none;stroke:#0088ff;stroke-width:1px; 	 stroke-linecap:butt;stroke-linejoin:miter;stroke-opacity:1" d="M 
0 120.00 4 104.25 8 90.56 12 78.67 16 68.34 20 59.37 24 51.58 28 44.80 32 38.92 36 33.81 40 29.37 44 25.52 48 22.17 52 19.26 56 16.73 60 14.53 64 12.62 68 10.97 72 9.53 76 8.28 80 7.19 84 6.25 88 
5.43 92 4.71 96 4.09 100 3.56 104 3.09 108 2.68 112 2.33 116 2.03 120 1.76 124 1.53 128 1.33 132 1.15 136 1.00 140 0.87 144 0.76 148 0.66 152 0.57 156 0.50 160 0.43 164 0.37 168 0.33 172 0.28 176 
0.25 180 0.21 184 0.19 188 0.16 192 0.14 196 0.12
"/>
</g>
<g id="expo_easeInOut" transform="translate( 396, 816 )">
<text x="0" y="-3" style="font-style:italic;">expo_easeInOut</text>
<rect x="0" y="0" width="197" height="120" fill="#eee" opacity=".7" stroke="none" />
<path style="fill:none;stroke:#0088ff;stroke-width:1px; 	 stroke-linecap:butt;stroke-linejoin:miter;stroke-opacity:1" d="M 
0 120.00 4 119.92 8 119.90 12 119.86 16 119.82 20 119.76 24 119.68 28 119.58 32 119.44 36 119.26 40 119.02 44 118.70 48 118.28 52 117.72 56 116.98 60 116.00 64 114.71 68 112.98 72 110.70 76 107.68 80 
103.68 84 98.37 88 91.34 92 82.02 96 69.68 100 53.99 104 40.74 108 30.75 112 23.20 116 17.51 120 13.22 124 9.97 128 7.53 132 5.68 136 4.29 140 3.23 144 2.44 148 1.84 152 1.39 156 1.05 160 0.79 164 
0.60 168 0.45 172 0.34 176 0.26 180 0.19 184 0.15 188 0.11 192 0.08 196 0.06
"/>
</g>
<g id="circ_easeIn" transform="translate( 0, 952 )">
<text x="0" y="-3" style="font-style:italic;">circ_easeIn</text>
<rect x="0" y="0" width="197" height="120" fill="#eee" opacity=".7" stroke="none" />
<path style="fill:none;stroke:#0088ff;stroke-width:1px; 	 stroke-linecap:butt;stroke-linejoin:miter;stroke-opacity:1" d="M 
0 120.00 4 119.98 8 119.90 12 119.78 16 119.60 20 119.38 24 119.11 28 118.78 32 118.41 36 117.98 40 117.50 44 116.97 48 116.38 52 115.74 56 115.05 60 114.30 64 113.49 68 112.62 72 111.70 76 110.71 80 
109.66 84 108.54 88 107.36 92 106.11 96 104.79 100 103.39 104 101.92 108 100.36 112 98.72 116 96.99 120 95.17 124 93.25 128 91.22 132 89.08 136 86.82 140 84.42 144 81.89 148 79.20 152 76.34 156 73.28 
160 70.01 164 66.49 168 62.67 172 58.51 176 53.91 180 48.77 184 42.87 188 35.86 192 26.86 196 12.08
"/>
</g>
<g id="circ_easeOut" transform="translate( 198, 952 )">
<text x="0" y="-3" style="font-style:italic;">circ_easeOut</text>
<rect x="0" y="0" width="197" height="120" fill="#eee" opacity=".7" stroke="none" />
<path style="fill:none;stroke:#0088ff;stroke-width:1px; 	 stroke-linecap:butt;stroke-linejoin:miter;stroke-opacity:1" d="M 
0 120.00 4 95.94 8 86.15 12 78.76 16 72.63 20 67.32 24 62.60 28 58.34 32 54.44 36 50.85 40 47.52 44 44.41 48 41.50 52 38.77 56 36.20 60 33.77 64 31.48 68 29.31 72 27.25 76 25.30 80 23.46 84 21.70 88 
20.04 92 18.47 96 16.97 100 15.55 104 14.21 108 12.94 112 11.74 116 10.61 120 9.55 124 8.54 128 7.60 132 6.72 136 5.90 140 5.13 144 4.42 148 3.77 152 3.17 156 2.63 160 2.14 164 1.70 168 1.31 172 0.97 
176 0.68 180 0.45 184 0.26 188 0.13 192 0.04 196 0.00
"/>
</g>
<g id="circ_easeInOut" transform="translate( 396, 952 )">
<text x="0" y="-3" style="font-style:italic;">circ_easeInOut</text>
<rect x="0" y="0" width="197" height="120" fill="#eee" opacity=".7" stroke="none" />
<path style="fill:none;stroke:#0088ff;stroke-width:1px; 	 stroke-linecap:butt;stroke-linejoin:miter;stroke-opacity:1" d="M 
0 120.00 4 119.95 8 119.80 12 119.55 16 119.20 20 118.75 24 118.19 28 117.52 32 116.75 36 115.85 40 114.83 44 113.68 48 112.39 52 110.96 56 109.36 60 107.58 64 105.61 68 103.41 72 100.94 76 98.17 80 
95.00 84 91.34 88 86.96 92 81.43 96 73.43 100 49.57 104 40.23 108 34.29 112 29.68 116 25.86 120 22.58 124 19.72 128 17.18 132 14.92 136 12.89 140 11.07 144 9.43 148 7.95 152 6.63 156 5.44 160 4.39 
164 3.47 168 2.66 172 1.96 176 1.38 180 0.90 184 0.52 188 0.25 192 0.08 196 0.00
"/>
</g>
<g id="back_easeIn" transform="translate( 0, 1088 )">
<text x="0" y="-3" style="font-style:italic;">back_easeIn</text>
<rect x="0" y="0" width="197" height="120" fill="#eee" opacity=".7" stroke="none" />
<path style="fill:none;stroke:#0088ff;stroke-width:1px; 	 stroke-linecap:butt;stroke-linejoin:miter;stroke-opacity:1" d="M 
0 120.00 4 120.08 8 120.32 12 120.68 16 121.17 20 121.77 24 122.44 28 123.19 32 124.00 36 124.84 40 125.70 44 126.57 48 127.43 52 128.26 56 129.05 60 129.78 64 130.43 68 131.00 72 131.45 76 131.78 80 
131.96 84 131.99 88 131.85 92 131.51 96 130.97 100 130.21 104 129.21 108 127.95 112 126.43 116 124.61 120 122.49 124 120.05 128 117.28 132 114.15 136 110.65 140 106.77 144 102.48 148 97.78 152 92.65 
156 87.06 160 81.01 164 74.47 168 67.44 172 59.89 176 51.80 180 43.17 184 33.98 188 24.20 192 13.83 196 2.84
"/>
</g>
<g id="back_easeOut" transform="translate( 198, 1088 )">
<text x="0" y="-3" style="font-style:italic;">back_easeOut</text>
<rect x="0" y="0" width="197" height="120" fill="#eee" opacity=".7" stroke="none" />
<path style="fill:none;stroke:#0088ff;stroke-width:1px; 	 stroke-linecap:butt;stroke-linejoin:miter;stroke-opacity:1" d="M 
0 120.00 4 108.86 8 98.33 12 88.41 16 79.07 20 70.30 24 62.08 28 54.40 32 47.24 36 40.58 40 34.41 44 28.71 48 23.46 52 18.65 56 14.26 60 10.28 64 6.69 68 3.47 72 0.61 76 -1.91 80 -4.11 84 -6.00 88 
-7.60 92 -8.92 96 -9.98 100 -10.80 104 -11.40 108 -11.78 112 -11.97 116 -11.99 120 -11.84 124 -11.54 128 -11.12 132 -10.58 136 -9.95 140 -9.24 144 -8.47 148 -7.64 152 -6.79 156 -5.92 160 -5.05 164 
-4.21 168 -3.39 172 -2.63 176 -1.93 180 -1.31 184 -0.80 188 -0.40 192 -0.13 196 -0.01
"/>
</g>
<g id="back_easeInOut" transform="translate( 396, 1088 )">
<text x="0" y="-3" style="font-style:italic;">back_easeInOut</text>
<rect x="0" y="0" width="197" height="120" fill="#eee" opacity=".7" stroke="none" />
<path style="fill:none;stroke:#0088ff;stroke-width:1px; 	 stroke-linecap:butt;stroke-linejoin:miter;stroke-opacity:1" d="M 
0 120.00 4 120.24 8 120.91 12 121.92 16 123.18 20 124.61 24 126.12 28 127.63 32 129.04 36 130.27 40 131.23 44 131.84 48 132.01 52 131.66 56 130.69 60 129.02 64 126.56 68 123.24 72 118.95 76 113.61 80 
107.14 84 99.46 88 90.46 92 80.07 96 68.21 100 55.00 104 42.75 108 32.00 112 22.67 116 14.66 120 7.90 124 2.29 128 -2.26 132 -5.82 136 -8.48 140 -10.34 144 -11.48 148 -11.98 152 -11.93 156 -11.42 160 
-10.54 164 -9.36 168 -7.99 172 -6.50 176 -4.99 180 -3.53 184 -2.22 188 -1.14 192 -0.37 196 -0.02
"/>
</g>
<g id="elastic_easeIn" transform="translate( 0, 1224 )">
<text x="0" y="-3" style="font-style:italic;">elastic_easeIn</text>
<rect x="0" y="0" width="197" height="120" fill="#eee" opacity=".7" stroke="none" />
<path style="fill:none;stroke:#0088ff;stroke-width:1px; 	 stroke-linecap:butt;stroke-linejoin:miter;stroke-opacity:1" d="M 
0 120.00 4 120.01 8 119.95 12 119.88 16 119.81 20 119.76 24 119.76 28 119.80 32 119.91 36 120.07 40 120.27 44 120.47 48 120.63 52 120.70 56 120.63 60 120.40 64 120.00 68 119.47 72 118.89 76 118.38 80 
118.06 84 118.08 88 118.55 92 119.50 96 120.88 100 122.50 104 124.07 108 125.23 112 125.58 116 124.77 120 122.61 124 119.15 128 114.75 132 110.13 136 106.26 140 104.25 144 105.18 148 109.80 152 
118.23 156 129.82 160 142.93 164 155.08 168 163.18 172 164.08 176 155.22 180 135.46 184 105.75 188 69.63 192 33.25 196 4.80
"/>
</g>
<g id="elastic_easeOut" transform="translate( 198, 1224 )">
<text x="0" y="-3" style="font-style:italic;">elastic_easeOut</text>
<rect x="0" y="0" width="197" height="120" fill="#eee" opacity=".7" stroke="none" />
<path style="fill:none;stroke:#0088ff;stroke-width:1px; 	 stroke-linecap:butt;stroke-linejoin:miter;stroke-opacity:1" d="M 
0 120.00 4 94.96 8 59.73 12 22.87 16 -8.88 20 -31.31 24 -42.85 28 -44.20 32 -37.61 36 -26.17 40 -13.04 44 -0.88 48 8.44 52 14.03 56 15.83 60 14.47 64 10.95 68 6.41 72 1.89 76 -1.85 80 -4.36 84 -5.50 
88 -5.41 92 -4.42 96 -2.91 100 -1.27 104 0.19 108 1.25 112 1.84 116 1.97 120 1.73 124 1.25 128 0.67 132 0.12 136 -0.32 140 -0.59 144 -0.70 148 -0.66 152 -0.51 156 -0.32 160 -0.11 164 0.06 168 0.18 
172 0.24 176 0.24 180 0.20 184 0.14 188 0.07 192 0.00 196 -0.05
"/>
</g>
<g id="elastic_easeInOut" transform="translate( 396, 1224 )">
<text x="0" y="-3" style="font-style:italic;">elastic_easeInOut</text>
<rect x="0" y="0" width="197" height="120" fill="#eee" opacity=".7" stroke="none" />
<path style="fill:none;stroke:#0088ff;stroke-width:1px; 	 stroke-linecap:butt;stroke-linejoin:miter;stroke-opacity:1" d="M 
0 120.00 4 119.95 8 119.90 12 119.87 16 119.88 20 119.97 24 120.13 28 120.35 32 120.56 36 120.62 40 120.42 44 119.83 48 118.90 52 117.83 56 117.09 60 117.29 64 119.06 68 122.66 72 127.59 76 132.30 80 
134.17 84 130.08 88 117.64 92 97.04 96 72.81 100 52.77 104 28.98 108 6.83 112 -7.80 116 -13.82 120 -13.16 124 -8.88 128 -3.81 132 0.21 136 2.43 140 2.98 144 2.41 148 1.37 152 0.37 156 -0.31 160 -0.60 
164 -0.59 168 -0.41 172 -0.19 176 -0.00 180 0.10 184 0.13 188 0.11 192 0.06 196 0.02
"/>
</g>
<g id="bounce_easeIn" transform="translate( 0, 1360 )">
<text x="0" y="-3" style="font-style:italic;">bounce_easeIn</text>
<rect x="0" y="0" width="197" height="120" fill="#eee" opacity=".7" stroke="none" />
<path style="fill:none;stroke:#0088ff;stroke-width:1px; 	 stroke-linecap:butt;stroke-linejoin:miter;stroke-opacity:1" d="M 
0 120.00 4 118.70 8 118.15 12 118.34 16 119.29 20 118.35 24 115.77 28 113.93 32 112.84 36 112.50 40 112.91 44 114.07 48 115.97 52 118.62 56 116.31 60 110.41 64 105.26 68 100.85 72 97.20 76 94.29 80 
92.13 84 90.72 88 90.06 92 90.14 96 90.97 100 92.56 104 94.89 108 97.96 112 101.79 116 106.36 120 111.69 124 117.76 128 111.33 132 98.80 136 87.01 140 75.97 144 65.68 148 56.14 152 47.35 156 39.31 
160 32.01 164 25.46 168 19.67 172 14.61 176 10.31 180 6.76 184 3.95 188 1.89 192 0.58 196 0.02
"/>
</g>
<g id="bounce_easeOut" transform="translate( 198, 1360 )">
<text x="0" y="-3" style="font-style:italic;">bounce_easeOut</text>
<rect x="0" y="0" width="197" height="120" fill="#eee" opacity=".7" stroke="none" />
<path style="fill:none;stroke:#0088ff;stroke-width:1px; 	 stroke-linecap:butt;stroke-linejoin:miter;stroke-opacity:1" d="M 
0 120.00 4 119.63 8 118.50 12 116.63 16 114.01 20 110.65 24 106.53 28 101.67 32 96.06 36 89.69 40 82.59 44 74.73 48 66.12 52 56.77 56 46.67 60 35.82 64 24.22 68 11.87 72 0.61 76 6.86 80 12.37 84 
17.14 88 21.15 92 24.41 96 26.93 100 28.70 104 29.72 108 29.99 112 29.52 116 28.29 120 26.32 124 23.60 128 20.13 132 15.91 136 10.95 140 5.23 144 0.60 148 3.44 152 5.53 156 6.87 160 7.47 164 7.31 168 
6.41 172 4.76 176 2.37 180 0.36 184 1.49 188 1.87 192 1.51 196 0.40
"/>
</g>
<g id="bounce_easeInOut" transform="translate( 396, 1360 )">
<text x="0" y="-3" style="font-style:italic;">bounce_easeInOut</text>
<rect x="0" y="0" width="197" height="120" fill="#eee" opacity=".7" stroke="none" />
<path style="fill:none;stroke:#0088ff;stroke-width:1px; 	 stroke-linecap:butt;stroke-linejoin:miter;stroke-opacity:1" d="M 
0 120.00 4 119.07 8 119.64 12 117.88 16 116.42 20 116.45 24 117.99 28 118.16 32 112.63 36 108.60 40 106.07 44 105.03 48 105.49 52 107.44 56 110.90 60 115.84 64 115.67 68 103.51 72 92.84 76 83.68 80 
76.01 84 69.83 88 65.16 92 61.98 96 60.29 100 59.89 104 58.59 108 55.78 112 51.48 116 45.68 120 38.38 124 29.59 128 19.30 132 7.52 136 2.68 140 8.01 144 11.83 148 14.16 152 15.00 156 14.33 160 12.17 
164 8.52 168 3.37 172 1.40 176 3.30 180 3.71 184 2.62 188 0.04 192 0.92 196 0.37
"/>
</g>
</g>
</svg>
